# xmcd CD database file
#
# Track frame offsets:
#	150
#	7645
#	15907
#	24242
#	35502
#	48879
#	59017
#	69535
#	78215
#	85024
#	95875
#	101794
#	111469
#	120121
#	132520
#	138119
#	145684
#	161591
#	176705
#	185006
#	192792
#	199730
#	206164
#	218614
#	227282
#
# Disc length: 3158 seconds
#
# Revision: 2
# Processed by: cddbd v1.5.1PL0 Copyright (c) Steve Scherf et al.
# Submitted via: CDex 1.51
#
DISCID=490c5419
DTITLE=Various Artist - ベストヒットこどものうた　ビックリ・タマゲタ/クレヨンロケット
DYEAR=2002
DGENRE=Music
TTITLE0=神崎ゆう子/こうえんにいきましょう
TTITLE1=神崎 ゆう子 and 速水 けんたろう/ビックリ・タマゲタ
TTITLE2=神崎 ゆう子 and 速水 けんたろう/リズム君・メロディーちゃん
TTITLE3=春口 雅子 and 速水 けんたろう/ハオハオ
TTITLE4=神崎 ゆう子 and 速水 けんたろう/あ・い・う・え・おにぎり
TTITLE5=春口 雅子 and 速水 けんたろう/ゆめのパレード
TTITLE6=神崎 ゆう子 and 速水 けんたろう/クレヨンロケット
TTITLE7=西村ちなみ・渕崎ゆり子・岩坪理江・生駒治美・三石琴乃&子鬼トリオ/あっちむいてホイでおじゃる
TTITLE8=速水けんたろう/どんどんゴロゴロ
TTITLE9=春口 雅子 and 速水 けんたろう/あめふりりんちゃん
TTITLE10=大和田りつこ&高橋寛/げんこつやまのたぬきさん
TTITLE11=速水けんたろう&神崎ゆう子/バンジョーのジョー
TTITLE12=神崎ゆう子&坂田おさむ/たこやきなんぼマンボ
TTITLE13=ゾウサンズ/パジャマでおじゃま
TTITLE14=春口 雅子 and 速水 けんたろう/すずめがサンバ
TTITLE15=大和田りつこ/いぬのおまわりさん
TTITLE16=神崎 ゆう子 and 速水 けんたろう/せんろはつづくよどこまでも
TTITLE17=戸田ダリオ＆トゥインクル・キッズ/慎吾ママの学園天国〜校門編〜
TTITLE18=春口 雅子 and 速水 けんたろう/わらいかわせみにはなすなよ
TTITLE19=神崎ゆう子&坂田おさむ/スプラッピスプラッパ
TTITLE20=速水けんたろう/ぼくのシャンプー
TTITLE21=しばたかの&高橋寛/おおきなくりのきのしたで
TTITLE22=神崎ゆう子&赤い靴J.コーラスシニア隊/さんぽ
TTITLE23=神崎ゆう子/すてきなことば
TTITLE24=神崎 ゆう子 and 速水 けんたろう/あるこう
EXTD=YEAR: 2002
EXTT0=
EXTT1=
EXTT2=
EXTT3=
EXTT4=
EXTT5=
EXTT6=
EXTT7=
EXTT8=
EXTT9=
EXTT10=
EXTT11=
EXTT12=
EXTT13=
EXTT14=
EXTT15=
EXTT16=
EXTT17=
EXTT18=
EXTT19=
EXTT20=
EXTT21=
EXTT22=
EXTT23=
EXTT24=
PLAYORDER=
